<svg xmlns="http://www.w3.org/2000/svg"
    xmlns:v="https://vecta.io/nano" width="50" height="50" viewBox="0 0 135.467 135.467">
    <path d="M135.467 123.786c0 6.425-5.246 11.68-11.677 11.68H11.68c-6.425 0-11.68-5.256-11.68-11.68V11.678C0 5.253 5.256 0 11.68 0H123.8c6.43 0 11.677 5.253 11.677 11.677z" fill="#fee500"/>
    <path d="M68.51 33.233c-21.487 0-38.904 13.733-38.904 30.675 0 10.953 7.283 20.574 18.236 25.99l-3.958 14.1s-.078.658.348.91c.288.145.624.166.928.056 1.227-.172 14.215-9.28 16.46-10.848 2.283.317 4.586.473 6.89.468 21.487 0 38.904-13.733 38.904-30.675S89.998 33.233 68.51 33.233z" fill="#181600"/>
</svg>