<svg xmlns="http://www.w3.org/2000/svg"
    xmlns:v="https://vecta.io/nano" width="50" height="50" viewBox="0 0 135.467 135.467">
    <path d="M135.467 123.786c0 6.425-5.246 11.68-11.677 11.68H11.68C5.256 135.467 0 130.2 0 123.786V11.677C0 5.253 5.256 0 11.68 0h112.11c6.43 0 11.677 5.253 11.677 11.677z" fill="#f8f8f8"/>
    <path d="M107.6 68.874c0-3.384-.275-5.854-.87-8.415H68.086v15.275H90.77c-.457 3.796-2.927 9.513-8.415 13.354l-.077.51 12.22 9.466.847.084c7.774-7.18 12.256-17.744 12.256-30.275" fill="#4285f4"/>
    <path d="M68.086 109.12c11.113 0 20.442-3.66 27.257-9.97l-12.988-10.06c-3.476 2.424-8.14 4.116-14.27 4.116-10.884 0-20.122-7.18-23.415-17.104l-.483.04-12.705 9.833-.166.462c6.768 13.445 20.67 22.684 36.77 22.684" fill="#34a853"/>
    <path d="M44.67 76.1c-.87-2.56-1.372-5.305-1.372-8.14s.503-5.58 1.326-8.14l-.023-.545-12.864-9.99-.42.2c-2.8 5.58-4.4 11.845-4.4 18.476s1.6 12.896 4.4 18.476L44.67 76.1" fill="#fbbc05"/>
    <path d="M68.086 42.714c7.73 0 12.942 3.338 15.915 6.128L95.617 37.5c-7.134-6.63-16.418-10.7-27.53-10.7-16.098 0-30 9.238-36.77 22.683L44.625 59.82c3.34-9.924 12.577-17.104 23.46-17.104" fill="#eb4335"/>
</svg>