<svg xmlns="http://www.w3.org/2000/svg"
    xmlns:v="https://vecta.io/nano" width="50" height="50" viewBox="0 0 135.467 135.467">
    <defs>
        <clipPath id="A">
            <path d="M230.03 2445.8h40v-40h-40z"/>
        </clipPath>
    </defs>
    <g clip-path="url(#A)" opacity=".6" transform="matrix(0 0 0 -.352778 -.000186 984.18262)">
        <path d="M266.583 2445.807H233.48a3.46 3.46 0 0 1-3.448-3.448v-33.103a3.46 3.46 0 0 1 3.448-3.449h33.103a3.46 3.46 0 0 1 3.449 3.449v33.103a3.46 3.46 0 0 1-3.449 3.448m0-.57a2.88 2.88 0 0 0 2.877-2.877v-33.103a2.88 2.88 0 0 0-2.877-2.878H233.48a2.88 2.88 0 0 0-2.876 2.878v33.103a2.88 2.88 0 0 0 2.876 2.877h33.103" fill="#1eb400"/>
    </g>
    <path d="M135.466 123.786c0 6.425-5.246 11.68-11.677 11.68H11.68C5.256 135.466 0 130.2 0 123.786V11.677C0 5.252 5.256 0 11.68 0h112.11c6.43 0 11.677 5.253 11.677 11.677z" fill="#1ec800"/>
    <path d="M78.012 38.1V68L57.526 38.1H35.39v59.267h22.064v-29.9l20.486 29.9h22.135V38.1z" fill="#fff"/>
</svg>