<svg width="37" height="32" viewBox="0 0 37 32" fill="none"
    xmlns="http://www.w3.org/2000/svg">
    <path d="M9.0625 17C10.0625 16.75 11.0208 16.7917 11.9375 17.125C12.8542 17.375 13.6458 17.8333 14.3125 18.5C15.0625 19.1667 15.6458 19.9583 16.0625 20.875C16.5625 21.7917 16.8125 22.7917 16.8125 23.875C16.8125 25.9583 16.0625 27.7083 14.5625 29.125C13.0625 30.4583 11.2292 31.125 9.0625 31.125C6.14583 31.125 3.97917 30.0833 2.5625 28C1.14583 25.8333 0.4375 23.0833 0.4375 19.75C0.4375 15.25 1.47917 11.3333 3.5625 8C5.72917 4.58333 9.0625 2.04167 13.5625 0.375L15.3125 2.75C12.0625 4.25 9.64583 6.125 8.0625 8.375C6.47917 10.625 5.6875 13.125 5.6875 15.875C5.6875 16.7917 5.85417 17.3333 6.1875 17.5C6.60417 17.6667 7.0625 17.6667 7.5625 17.5L9.0625 17ZM29.0625 17C30.9792 16.5833 32.7292 17.0833 34.3125 18.5C35.8958 19.9167 36.6875 21.7083 36.6875 23.875C36.6875 25.9583 35.9375 27.7083 34.4375 29.125C33.0208 30.4583 31.2292 31.125 29.0625 31.125C26.1458 31.125 23.9375 30.0833 22.4375 28C21.0208 25.8333 20.3125 23.0833 20.3125 19.75C20.3125 15.25 21.3958 11.3333 23.5625 8C25.7292 4.58333 29.0625 2.04167 33.5625 0.375L35.3125 2.75C32.0625 4.25 29.6042 6.125 27.9375 8.375C26.3542 10.625 25.5625 13.125 25.5625 15.875C25.5625 16.7917 25.7292 17.3333 26.0625 17.5C26.4792 17.6667 26.9792 17.6667 27.5625 17.5L29.0625 17Z" fill="#FCFCFC"/>
</svg>
