<svg width="37" height="32" viewBox="0 0 37 32" fill="none"
    xmlns="http://www.w3.org/2000/svg">
    <path d="M27.8125 14.75C26.8125 15 25.8542 14.9583 24.9375 14.625C24.0208 14.2917 23.1875 13.7917 22.4375 13.125C21.7708 12.4583 21.1875 11.6667 20.6875 10.75C20.2708 9.83333 20.0625 8.83333 20.0625 7.75C20.0625 5.75 20.8125 4.08333 22.3125 2.75C23.8125 1.33333 25.6458 0.625 27.8125 0.625C30.7292 0.625 32.8958 1.70833 34.3125 3.875C35.7292 5.95833 36.4375 8.625 36.4375 11.875C36.4375 16.375 35.3542 20.3333 33.1875 23.75C31.1042 27.1667 27.8125 29.7083 23.3125 31.375L21.4375 28.875C24.7708 27.4583 27.2292 25.625 28.8125 23.375C30.3958 21.125 31.1875 18.625 31.1875 15.875C31.1875 14.9583 30.9792 14.4167 30.5625 14.25C30.2292 14.0833 29.8125 14.0833 29.3125 14.25L27.8125 14.75ZM7.8125 14.75C6.8125 15 5.85417 14.9583 4.9375 14.625C4.02083 14.2917 3.1875 13.7917 2.4375 13.125C1.77083 12.4583 1.1875 11.6667 0.6875 10.75C0.270833 9.83333 0.0625 8.83333 0.0625 7.75C0.0625 5.75 0.8125 4.08333 2.3125 2.75C3.8125 1.33333 5.64583 0.625 7.8125 0.625C10.7292 0.625 12.8958 1.70833 14.3125 3.875C15.7292 5.95833 16.4375 8.625 16.4375 11.875C16.4375 16.375 15.3542 20.3333 13.1875 23.75C11.1042 27.1667 7.8125 29.7083 3.3125 31.375L1.5625 28.875C4.8125 27.4583 7.22917 25.625 8.8125 23.375C10.3958 21.125 11.1875 18.625 11.1875 15.875C11.1875 14.9583 10.9792 14.4167 10.5625 14.25C10.2292 14.0833 9.8125 14.0833 9.3125 14.25L7.8125 14.75Z" fill="white"/>
</svg>
