<svg width="512" height="512" viewBox="0 0 512 512" fill="none"
    xmlns="http://www.w3.org/2000/svg">
    <rect width="512" height="512" fill="#5AB890"/>
    <path d="M181.863 263.562C189.676 261.609 197.163 261.935 204.324 264.539C211.486 266.492 217.671 270.073 222.879 275.281C228.738 280.49 233.296 286.674 236.551 293.836C240.457 300.997 242.41 308.81 242.41 317.273C242.41 333.549 236.551 347.221 224.832 358.289C213.113 368.706 198.79 373.914 181.863 373.914C159.077 373.914 142.15 365.776 131.082 349.5C120.014 332.573 114.48 311.089 114.48 285.047C114.48 249.891 122.618 219.292 138.895 193.25C155.822 166.557 181.863 146.701 217.02 133.68L230.691 152.234C205.301 163.953 186.421 178.602 174.051 196.18C161.681 213.758 155.496 233.289 155.496 254.773C155.496 261.935 156.798 266.167 159.402 267.469C162.658 268.771 166.238 268.771 170.145 267.469L181.863 263.562ZM338.113 263.562C353.087 260.307 366.759 264.214 379.129 275.281C391.499 286.349 397.684 300.346 397.684 317.273C397.684 333.549 391.824 347.221 380.105 358.289C369.038 368.706 355.04 373.914 338.113 373.914C315.327 373.914 298.074 365.776 286.355 349.5C275.288 332.573 269.754 311.089 269.754 285.047C269.754 249.891 278.217 219.292 295.145 193.25C312.072 166.557 338.113 146.701 373.27 133.68L386.941 152.234C361.551 163.953 342.345 178.602 329.324 196.18C316.954 213.758 310.77 233.289 310.77 254.773C310.77 261.935 312.072 266.167 314.676 267.469C317.931 268.771 321.837 268.771 326.395 267.469L338.113 263.562Z" fill="#FCFCFC"/>
</svg>
