<svg width="190" height="35" viewBox="0 0 190 35" fill="none"
    xmlns="http://www.w3.org/2000/svg">
    <path d="M11.0215 14.6869C12.1699 15.9525 13.4004 17.2299 14.7129 18.5189C16.0254 19.808 17.3145 20.9564 18.5801 21.9642L15.9785 24.3549C14.9941 23.0189 14.0098 21.6947 13.0254 20.3822C12.0645 19.0463 11.0449 17.6986 9.9668 16.3392C8.8418 17.9799 7.55273 19.515 6.09961 20.9447C4.64648 22.351 3.00586 23.7103 1.17773 25.0228L0.193359 24.1439C2.79492 21.8705 4.88086 19.4564 6.45117 16.9017C8.04492 14.3236 9.16992 11.64 9.82617 8.85095C9.91992 8.47595 9.95508 8.1947 9.93164 8.0072C9.9082 7.8197 9.80273 7.66736 9.61523 7.55017C9.38086 7.38611 9.07617 7.21033 8.70117 7.02283C8.32617 6.83533 7.92773 6.64783 7.50586 6.46033L8.34961 5.30017C9.26367 5.53455 10.2246 5.79236 11.2324 6.07361C12.2637 6.35486 13.3066 6.67126 14.3613 7.02283C13.5176 9.90564 12.4043 12.4603 11.0215 14.6869ZM23.2207 0.62439C23.7832 0.694702 24.3809 0.788452 25.0137 0.90564C25.6465 1.02283 26.2676 1.14001 26.877 1.2572C27.5098 1.37439 28.1074 1.49158 28.6699 1.60876C29.2324 1.72595 29.7363 1.83142 30.1816 1.92517C30.1348 2.13611 30.0879 2.39392 30.041 2.69861C30.0176 3.0033 29.9941 3.30798 29.9707 3.61267C29.9473 3.91736 29.9238 4.19861 29.9004 4.45642C29.877 4.71423 29.8652 4.90173 29.8652 5.01892V24.4955C29.8652 25.222 29.8418 26.0541 29.7949 26.9916C29.7715 27.9056 29.7246 28.8314 29.6543 29.7689C29.6074 30.7064 29.5488 31.597 29.4785 32.4408C29.4082 33.308 29.3262 34.0345 29.2324 34.6205L26.8418 34.9369C26.7949 34.4916 26.7598 33.9525 26.7363 33.3197C26.7129 32.7103 26.6777 32.0424 26.6309 31.3158C26.6074 30.6127 26.584 29.8978 26.5605 29.1713C26.5605 28.4213 26.5605 27.7064 26.5605 27.0267V4.94861C26.5605 4.22205 26.2793 3.63611 25.7168 3.1908C25.1777 2.72205 24.1582 2.30017 22.6582 1.92517L23.2207 0.62439ZM20.1621 15.1439C19.1777 15.1908 18.2285 15.2728 17.3145 15.39C16.4238 15.4838 15.6035 15.6127 14.8535 15.7767L13.4121 12.9994C14.1387 13.1166 14.8535 13.222 15.5566 13.3158C16.2598 13.3861 16.916 13.4095 17.5254 13.3861C17.9238 13.3861 18.3457 13.3744 18.791 13.351C19.2598 13.3275 19.7168 13.2924 20.1621 13.2455V6.35486C20.1621 6.0033 20.1035 5.68689 19.9863 5.40564C19.8926 5.12439 19.7051 4.86658 19.4238 4.6322C19.166 4.39783 18.8027 4.18689 18.334 3.99939C17.8652 3.81189 17.2793 3.62439 16.5762 3.43689L17.209 2.17126C18.334 2.31189 19.4824 2.49939 20.6543 2.73376C21.8262 2.9447 22.8574 3.16736 23.748 3.40173C23.7012 3.61267 23.6543 3.87048 23.6074 4.17517C23.5605 4.47986 23.5137 4.78455 23.4668 5.08923C23.4434 5.39392 23.4199 5.67517 23.3965 5.93298C23.373 6.1908 23.3613 6.3783 23.3613 6.49548V23.2299C23.3613 23.9564 23.3379 24.7885 23.291 25.726C23.2676 26.64 23.2207 27.5658 23.1504 28.5033C23.1035 29.4408 23.0332 30.3431 22.9395 31.2103C22.8691 32.0775 22.7988 32.8041 22.7285 33.39L20.4434 33.6713C20.3965 33.226 20.3613 32.6869 20.3379 32.0541C20.3145 31.4447 20.2793 30.7885 20.2324 30.0853C20.209 29.3822 20.1855 28.6674 20.1621 27.9408C20.1621 27.1908 20.1621 26.476 20.1621 25.7963V15.1439Z" fill="#5AB890"/>
    <path d="M62.9121 8.74548C64.5762 9.14392 66.3926 9.49548 68.3613 9.80017C70.3301 10.0814 72.2402 10.3158 74.0918 10.5033L72.0527 12.9642C71.4199 12.7767 70.6465 12.5541 69.7324 12.2963C68.8184 12.015 67.8574 11.7338 66.8496 11.4525C65.8418 11.1478 64.8105 10.8549 63.7559 10.5736C62.7246 10.2689 61.7754 9.99939 60.9082 9.76501C58.7754 10.8197 56.584 11.7103 54.334 12.4369C52.084 13.14 49.8691 13.726 47.6895 14.1947L46.8457 13.0345C50.4785 12.0502 53.7832 10.8549 56.7598 9.44861C59.7363 8.04236 62.2676 6.39001 64.3535 4.49158C62.9707 4.49158 61.5527 4.51501 60.0996 4.56189C58.6699 4.60876 57.3574 4.67908 56.1621 4.77283C55.9043 4.79626 55.5645 4.83142 55.1426 4.8783C54.7441 4.90173 54.2988 4.94861 53.8066 5.01892C53.3379 5.0658 52.8574 5.12439 52.3652 5.1947C51.873 5.24158 51.4395 5.30017 51.0645 5.37048L49.2363 2.52283C49.541 2.5697 49.9277 2.6283 50.3965 2.69861C50.8887 2.76892 51.3926 2.82751 51.9082 2.87439C52.4473 2.92126 52.9746 2.96814 53.4902 3.01501C54.0059 3.03845 54.4629 3.05017 54.8613 3.05017C55.7051 3.05017 56.7246 3.03845 57.9199 3.01501C59.1152 2.99158 60.3574 2.9447 61.6465 2.87439C62.959 2.80408 64.248 2.71033 65.5137 2.59314C66.8027 2.45251 67.9512 2.28845 68.959 2.10095L70.084 3.26111C69.123 4.33923 68.0332 5.33533 66.8145 6.24939C65.6191 7.14001 64.3184 7.97205 62.9121 8.74548ZM62.8418 17.6752C62.8418 18.308 62.8184 18.9642 62.7715 19.6439C62.7246 20.3002 62.666 20.9095 62.5957 21.472C64.0723 21.4252 65.5254 21.3783 66.9551 21.3314C68.3848 21.2845 69.6621 21.2025 70.7871 21.0853C70.7168 21.4369 70.6465 21.765 70.5762 22.0697C70.5293 22.3275 70.4707 22.6088 70.4004 22.9135C70.3535 23.2181 70.3066 23.4642 70.2598 23.6517L69.873 26.0775C70.0605 26.0541 70.2129 26.0424 70.3301 26.0424C70.4707 26.0424 70.5996 26.0306 70.7168 26.0072L70.4707 28.1869C69.1582 28.1166 67.752 28.0814 66.252 28.0814C64.752 28.0814 63.2988 28.0931 61.8926 28.1166C60.5098 28.14 59.2441 28.1752 58.0957 28.222C56.9473 28.2689 56.0801 28.3041 55.4941 28.3275C55.4707 28.5385 55.459 28.7377 55.459 28.9252C55.459 29.1127 55.459 29.3002 55.459 29.4877V31.0697C55.459 31.4447 55.4941 31.6674 55.5645 31.7377C55.6582 31.808 55.9395 31.8549 56.4082 31.8783C57.252 31.9017 58.377 31.89 59.7832 31.8431C61.1895 31.8197 62.6543 31.7611 64.1777 31.6674C65.7246 31.5736 67.2246 31.4564 68.6777 31.3158C70.1543 31.1752 71.3848 31.0228 72.3691 30.8588L71.7715 33.6713C70.5059 33.6244 69.0762 33.601 67.4824 33.601C65.8887 33.601 64.2949 33.601 62.7012 33.601C61.1074 33.6244 59.5723 33.6478 58.0957 33.6713C56.6191 33.7181 55.3535 33.765 54.2988 33.8119C53.4785 33.8588 52.9043 33.6947 52.5762 33.3197C52.2715 32.9447 52.1191 32.4525 52.1191 31.8431V30.0502C52.1191 29.6283 52.084 29.2767 52.0137 28.9955C51.9668 28.7142 51.8496 28.4799 51.6621 28.2924C51.498 28.1049 51.2402 27.9408 50.8887 27.8002C50.5371 27.6595 50.0801 27.4955 49.5176 27.308L50.1152 26.2181C51.3105 26.3353 52.6113 26.4174 54.0176 26.4642C55.4473 26.5111 56.9004 26.5345 58.377 26.5345C59.8535 26.5345 61.3066 26.5228 62.7363 26.4994C64.166 26.4525 65.502 26.3939 66.7441 26.3236L66.8496 22.9838C66.2871 22.9603 65.5605 22.9603 64.6699 22.9838C63.7793 22.9838 62.8418 22.9955 61.8574 23.0189C60.8965 23.0424 59.959 23.0775 59.0449 23.1244C58.1309 23.1478 57.3691 23.183 56.7598 23.2299C56.5254 23.2533 56.1973 23.2767 55.7754 23.3002C55.377 23.3236 54.9316 23.3705 54.4395 23.4408C53.9707 23.4877 53.4785 23.5463 52.9629 23.6166C52.4707 23.6635 52.0137 23.7338 51.5918 23.8275L49.9746 21.015C50.2324 21.0619 50.584 21.1205 51.0293 21.1908C51.4746 21.2611 51.9551 21.3197 52.4707 21.3666C52.9863 21.4135 53.4902 21.4603 53.9824 21.5072C54.4746 21.5306 54.9082 21.5424 55.2832 21.5424H59.4668C59.4434 20.9799 59.4316 20.3939 59.4316 19.7845C59.4316 19.1517 59.4316 18.6244 59.4316 18.2025V17.6049C58.4707 17.6283 57.5332 17.6517 56.6191 17.6752C55.7051 17.6986 54.8496 17.7338 54.0527 17.7806C53.2559 17.8041 52.541 17.8392 51.9082 17.8861C51.2988 17.9095 50.8066 17.933 50.4316 17.9564C49.5645 18.0033 48.6152 18.0736 47.584 18.1674C46.5527 18.2611 45.627 18.3666 44.8066 18.4838L43.6113 15.4252C44.666 15.5424 45.791 15.6478 46.9863 15.7416C48.2051 15.8119 49.3418 15.8588 50.3965 15.8822C50.959 15.9056 51.709 15.9174 52.6465 15.9174C53.584 15.9174 54.6035 15.9174 55.7051 15.9174C56.8301 15.8939 57.9902 15.8705 59.1855 15.847C60.4043 15.8236 61.5645 15.8002 62.666 15.7767C63.7676 15.7533 64.7871 15.7299 65.7246 15.7064C66.6621 15.6595 67.4121 15.6244 67.9746 15.601C69.5449 15.5306 71.1387 15.4252 72.7559 15.2845C74.373 15.1205 75.8262 14.9447 77.1152 14.7572L76.6582 17.64C76.1895 17.6166 75.6387 17.5931 75.0059 17.5697C74.3965 17.5463 73.7285 17.5345 73.002 17.5345C72.2754 17.5111 71.5254 17.4877 70.752 17.4642C69.9785 17.4408 69.2051 17.4291 68.4316 17.4291C67.7988 17.4291 67.002 17.4408 66.041 17.4642C65.0801 17.4642 64.0137 17.4877 62.8418 17.5345V17.6752ZM106.225 18.1322C107.35 18.0853 108.369 18.0502 109.283 18.0267C110.221 18.0033 110.971 17.9799 111.533 17.9564C113.104 17.8861 114.697 17.7806 116.314 17.64C117.932 17.476 119.385 17.3002 120.674 17.1127L120.217 19.9955C119.748 19.972 119.197 19.9486 118.564 19.9252C117.955 19.9017 117.287 19.89 116.561 19.89C115.834 19.8666 115.084 19.8431 114.311 19.8197C113.537 19.7963 112.764 19.7845 111.99 19.7845C111.334 19.7845 110.502 19.7963 109.494 19.8197C108.486 19.8197 107.385 19.8314 106.189 19.8549C105.018 19.8783 103.811 19.9135 102.568 19.9603C101.326 19.9838 100.143 20.0189 99.0176 20.0658C97.916 20.1127 96.9199 20.1595 96.0293 20.2064C95.1387 20.2299 94.459 20.2533 93.9902 20.2767C93.123 20.3236 92.1738 20.4056 91.1426 20.5228C90.1113 20.6166 89.1855 20.722 88.3652 20.8392L87.1699 17.7455C88.2246 17.8861 89.3496 18.0033 90.5449 18.097C91.7637 18.1674 92.9004 18.226 93.9551 18.2728C94.4004 18.2963 94.9512 18.308 95.6074 18.308C96.2637 18.308 96.9785 18.308 97.752 18.308C98.5488 18.308 99.3926 18.308 100.283 18.308C101.174 18.2845 102.076 18.2611 102.99 18.2377V13.7728C101.865 13.7963 100.811 13.8314 99.8262 13.8783C98.8652 13.9017 97.9746 13.9369 97.1543 13.9838C96.334 14.0306 95.7129 13.8314 95.291 13.3861C94.8926 12.9174 94.6934 12.3666 94.6934 11.7338V6.84705C94.6934 6.3783 94.6582 5.99158 94.5879 5.68689C94.5176 5.35876 94.377 5.08923 94.166 4.8783C93.9551 4.66736 93.6504 4.47986 93.252 4.3158C92.8535 4.15173 92.3145 3.97595 91.6348 3.78845L92.2676 2.52283C93.252 2.71033 94.3887 2.85095 95.6777 2.9447C96.9668 3.01501 98.3145 3.06189 99.7207 3.08533C101.127 3.10876 102.557 3.09705 104.01 3.05017C105.463 3.0033 106.846 2.9447 108.158 2.87439C109.471 2.80408 110.666 2.72205 111.744 2.6283C112.822 2.51111 113.713 2.39392 114.416 2.27673L113.889 5.05408C112.459 4.98376 111.018 4.93689 109.564 4.91345C108.135 4.86658 106.729 4.85486 105.346 4.8783C103.986 4.8783 102.686 4.90173 101.443 4.94861C100.201 4.97205 99.0645 5.01892 98.0332 5.08923V11.0306C98.0332 11.4994 98.0918 11.7924 98.209 11.9095C98.3496 12.0033 98.6895 12.0619 99.2285 12.0853C100.119 12.1088 101.209 12.097 102.498 12.0502C103.811 12.0033 105.182 11.933 106.611 11.8392C108.041 11.7455 109.459 11.6283 110.865 11.4877C112.271 11.347 113.525 11.2064 114.627 11.0658L114.064 13.8431C112.822 13.7963 111.533 13.7611 110.197 13.7377C108.885 13.7142 107.561 13.7142 106.225 13.7377V18.1322ZM97.7871 23.8627C99.0059 23.8627 100.389 23.8392 101.936 23.7924C103.506 23.7455 105.064 23.6869 106.611 23.6166C108.158 23.5228 109.623 23.4291 111.006 23.3353C112.412 23.2416 113.561 23.1478 114.451 23.0541C114.381 23.6635 114.322 24.1439 114.275 24.4955C114.252 24.847 114.24 25.222 114.24 25.6205V29.2064C114.24 29.8861 114.193 30.683 114.1 31.597C114.029 32.5111 113.877 33.3666 113.643 34.1635L111.217 34.6205C111.17 34.3392 111.123 33.9994 111.076 33.601C111.053 33.2025 111.029 32.7806 111.006 32.3353C110.982 31.9135 110.959 31.4916 110.936 31.0697C110.912 30.6713 110.9 30.3197 110.9 30.015V25.2338C110.01 25.2103 109.037 25.2103 107.982 25.2338C106.928 25.2572 105.861 25.3041 104.783 25.3744C103.705 25.4213 102.639 25.4799 101.584 25.5502C100.553 25.6205 99.5801 25.6908 98.666 25.7611C97.916 25.808 97.1895 25.8783 96.4863 25.972C95.7832 26.0658 95.0449 26.1713 94.2715 26.2885L92.9004 23.4056C93.252 23.4525 93.627 23.4994 94.0254 23.5463C94.4473 23.5931 94.8809 23.64 95.3262 23.6869C95.7715 23.7338 96.2051 23.7806 96.627 23.8275C97.0488 23.851 97.4355 23.8627 97.7871 23.8627ZM140.502 26.6049C140.502 27.2377 140.479 27.9056 140.432 28.6088C140.408 29.3119 140.373 30.015 140.326 30.7181C140.279 31.4213 140.221 32.0892 140.15 32.722C140.08 33.3783 139.998 33.9525 139.904 34.4447L137.408 34.8666C137.361 34.4681 137.314 33.9642 137.268 33.3549C137.244 32.7689 137.221 32.1478 137.197 31.4916C137.197 30.8588 137.197 30.2142 137.197 29.558C137.197 28.9017 137.197 28.3158 137.197 27.8002V22.808C136.283 22.8314 135.381 22.8549 134.49 22.8783C133.6 22.9017 132.768 22.9252 131.994 22.9486C131.221 22.972 130.529 22.9955 129.92 23.0189C129.311 23.0424 128.818 23.0658 128.443 23.0892C127.553 23.1361 126.592 23.2064 125.561 23.3002C124.553 23.3939 123.639 23.4994 122.818 23.6166L121.623 20.558C122.678 20.6986 123.803 20.8158 124.998 20.9095C126.217 20.9799 127.354 21.0385 128.408 21.0853C128.994 21.1088 129.732 21.1205 130.623 21.1205C131.537 21.1205 132.533 21.1205 133.611 21.1205C134.689 21.097 135.803 21.0736 136.951 21.0502C138.123 21.0033 139.236 20.9681 140.291 20.9447C141.369 20.8978 142.354 20.8627 143.244 20.8392C144.158 20.7924 144.896 20.7572 145.459 20.7338C147.029 20.6635 148.623 20.558 150.24 20.4174C151.881 20.2767 153.334 20.1127 154.6 19.9252L154.178 22.8431C153.709 22.8197 153.158 22.7963 152.525 22.7728C151.916 22.7494 151.248 22.7377 150.521 22.7377C149.795 22.7142 149.045 22.6908 148.271 22.6674C147.498 22.6439 146.725 22.6322 145.951 22.6322C145.318 22.6322 144.533 22.6439 143.596 22.6674C142.658 22.6674 141.627 22.6908 140.502 22.7377V26.6049ZM145.881 13.808C145.881 14.6049 145.682 15.3549 145.283 16.058C144.885 16.7377 144.334 17.3353 143.631 17.851C142.951 18.3666 142.143 18.7767 141.205 19.0814C140.268 19.3627 139.248 19.5033 138.146 19.5033C137.068 19.5033 136.061 19.351 135.123 19.0463C134.186 18.7416 133.365 18.3314 132.662 17.8158C131.982 17.3002 131.443 16.7025 131.045 16.0228C130.646 15.3197 130.447 14.5814 130.447 13.808C130.447 12.9642 130.646 12.2025 131.045 11.5228C131.443 10.8197 131.982 10.222 132.662 9.72986C133.365 9.23767 134.186 8.86267 135.123 8.60486C136.061 8.32361 137.068 8.18298 138.146 8.18298C139.295 8.18298 140.35 8.33533 141.311 8.64001C142.271 8.9447 143.08 9.36658 143.736 9.90564C144.416 10.4213 144.943 11.0189 145.318 11.6986C145.693 12.3783 145.881 13.0814 145.881 13.808ZM134.068 13.8431C134.068 14.3588 134.174 14.851 134.385 15.3197C134.619 15.7885 134.924 16.1986 135.299 16.5502C135.674 16.9017 136.107 17.183 136.6 17.3939C137.092 17.6049 137.619 17.7103 138.182 17.7103C138.768 17.7103 139.307 17.6166 139.799 17.4291C140.314 17.2181 140.76 16.9369 141.135 16.5853C141.51 16.2338 141.803 15.8236 142.014 15.3549C142.225 14.8861 142.33 14.3822 142.33 13.8431C142.33 13.3041 142.225 12.8002 142.014 12.3314C141.826 11.8392 141.545 11.4174 141.17 11.0658C140.818 10.6908 140.385 10.3978 139.869 10.1869C139.377 9.97595 138.814 9.87048 138.182 9.87048C137.619 9.87048 137.08 9.96423 136.564 10.1517C136.072 10.3392 135.639 10.6088 135.264 10.9603C134.912 11.2885 134.619 11.6986 134.385 12.1908C134.174 12.683 134.068 13.2338 134.068 13.8431ZM149.994 7.05798C149.361 7.03455 148.529 7.02283 147.498 7.02283C146.49 6.99939 145.389 6.99939 144.193 7.02283C142.998 7.04626 141.756 7.08142 140.467 7.1283C139.201 7.15173 137.994 7.18689 136.846 7.23376C135.721 7.2572 134.713 7.29236 133.822 7.33923C132.955 7.38611 132.311 7.42126 131.889 7.4447C131.607 7.4447 131.232 7.46814 130.764 7.51501C130.295 7.53845 129.803 7.57361 129.287 7.62048C128.771 7.66736 128.268 7.71423 127.775 7.76111C127.307 7.80798 126.92 7.85486 126.615 7.90173L125.385 5.08923C125.713 5.13611 126.135 5.1947 126.65 5.26501C127.166 5.31189 127.693 5.35876 128.232 5.40564C128.795 5.45251 129.334 5.49939 129.85 5.54626C130.365 5.5697 130.799 5.58142 131.15 5.58142C131.689 5.58142 132.416 5.5697 133.33 5.54626C134.268 5.52283 135.299 5.48767 136.424 5.4408C137.572 5.39392 138.779 5.34705 140.045 5.30017C141.334 5.22986 142.611 5.15955 143.877 5.08923C145.143 4.99548 146.361 4.91345 147.533 4.84314C148.729 4.74939 149.795 4.64392 150.732 4.52673L149.994 7.05798ZM143.279 3.64783C142.881 3.64783 142.389 3.64783 141.803 3.64783C141.24 3.64783 140.666 3.65955 140.08 3.68298C139.494 3.70642 138.943 3.72986 138.428 3.7533C137.912 3.7533 137.502 3.7533 137.197 3.7533C137.033 3.7533 136.775 3.76501 136.424 3.78845C136.096 3.78845 135.732 3.80017 135.334 3.82361C134.959 3.84705 134.572 3.8822 134.174 3.92908C133.775 3.95251 133.436 3.98767 133.154 4.03455L131.713 1.43298C131.994 1.5033 132.357 1.57361 132.803 1.64392C133.248 1.6908 133.705 1.73767 134.174 1.78455C134.666 1.83142 135.135 1.86658 135.58 1.89001C136.049 1.91345 136.436 1.92517 136.74 1.92517C136.998 1.92517 137.408 1.91345 137.971 1.89001C138.557 1.86658 139.189 1.83142 139.869 1.78455C140.549 1.73767 141.24 1.6908 141.943 1.64392C142.67 1.57361 143.303 1.5033 143.842 1.43298L143.279 3.64783ZM182.303 13.7377C182.303 14.1595 182.279 14.6517 182.232 15.2142C182.209 15.7767 182.174 16.3392 182.127 16.9017C182.08 17.4642 182.021 18.0033 181.951 18.5189C181.904 19.0111 181.846 19.3978 181.775 19.6791L179.279 20.0306C179.232 19.7963 179.197 19.4916 179.174 19.1166C179.15 18.7416 179.115 18.3549 179.068 17.9564C179.045 17.5345 179.021 17.1244 178.998 16.726C178.998 16.3041 178.998 15.9291 178.998 15.601V4.94861C178.998 4.22205 178.658 3.63611 177.979 3.1908C177.322 2.72205 176.221 2.30017 174.674 1.92517L175.201 0.62439C175.787 0.694702 176.42 0.788452 177.1 0.90564C177.803 0.99939 178.494 1.11658 179.174 1.2572C179.854 1.37439 180.498 1.49158 181.107 1.60876C181.717 1.72595 182.244 1.8197 182.689 1.89001C182.643 2.10095 182.596 2.35876 182.549 2.66345C182.502 2.96814 182.455 3.28455 182.408 3.61267C182.385 3.91736 182.361 4.19861 182.338 4.45642C182.314 4.71423 182.303 4.90173 182.303 5.01892V11.3822C182.795 11.3588 183.334 11.3236 183.92 11.2767C184.506 11.2064 185.104 11.1361 185.713 11.0658C186.322 10.9955 186.92 10.9252 187.506 10.8549C188.115 10.7611 188.689 10.6674 189.229 10.5736L188.842 13.351C188.42 13.3275 187.939 13.3158 187.4 13.3158C186.861 13.2924 186.287 13.2806 185.678 13.2806C185.092 13.2806 184.506 13.2924 183.92 13.3158C183.334 13.3158 182.795 13.3158 182.303 13.3158V13.7377ZM181.318 30.5424C181.811 30.5189 182.232 30.4838 182.584 30.4369L182.021 33.0033C181.178 32.933 180.193 32.8861 179.068 32.8627C177.943 32.8392 176.771 32.8158 175.553 32.7924C174.334 32.7924 173.127 32.8041 171.932 32.8275C170.736 32.851 169.635 32.8861 168.627 32.933C168.58 33.1205 168.533 33.3197 168.486 33.5306C168.463 33.765 168.428 33.9994 168.381 34.2338L166.166 34.6205C166.049 34.1517 165.943 33.5658 165.85 32.8627C165.779 32.183 165.721 31.5385 165.674 30.9291L165.252 24.4955C165.229 24.0736 165.182 23.7455 165.111 23.5111C165.041 23.2533 164.924 23.0424 164.76 22.8783C164.596 22.7142 164.361 22.5736 164.057 22.4564C163.752 22.3158 163.342 22.1752 162.826 22.0345L163.459 20.7338C166.529 21.1322 169.635 21.2963 172.775 21.226C175.939 21.1322 179.092 20.9447 182.232 20.6635C182.162 21.2728 182.08 21.9994 181.986 22.8431C181.916 23.6869 181.834 24.5658 181.74 25.4799C181.67 26.3939 181.6 27.2963 181.529 28.1869C181.459 29.0541 181.389 29.8392 181.318 30.5424ZM178.541 22.9838C177.791 22.9603 176.971 22.9486 176.08 22.9486C175.213 22.9252 174.334 22.9252 173.443 22.9486C172.553 22.972 171.686 23.0072 170.842 23.0541C169.998 23.0775 169.248 23.101 168.592 23.1244L168.732 30.2963V31.1049C170.256 31.0814 171.873 31.0345 173.584 30.9642C175.318 30.9174 176.947 30.8588 178.471 30.7885L178.541 22.9838ZM174.428 5.33533C173.842 7.09314 172.963 8.82751 171.791 10.5385C170.619 12.226 169.26 13.8314 167.713 15.3549C166.166 16.8549 164.49 18.2377 162.686 19.5033C160.881 20.7455 159.041 21.8002 157.166 22.6674L156.322 21.5424C157.822 20.7455 159.275 19.7963 160.682 18.6947C162.088 17.5931 163.389 16.4095 164.584 15.1439C165.779 13.8783 166.834 12.5658 167.748 11.2064C168.662 9.82361 169.389 8.4408 169.928 7.05798C169.412 7.05798 168.873 7.0697 168.311 7.09314C167.771 7.09314 167.256 7.10486 166.764 7.1283C166.271 7.15173 165.814 7.17517 165.393 7.19861C164.994 7.22205 164.678 7.24548 164.443 7.26892C164.232 7.29236 163.916 7.32751 163.494 7.37439C163.096 7.39783 162.65 7.4447 162.158 7.51501C161.689 7.56189 161.209 7.62048 160.717 7.6908C160.225 7.73767 159.791 7.80798 159.416 7.90173L157.588 5.08923C157.822 5.13611 158.162 5.18298 158.607 5.22986C159.076 5.2533 159.58 5.28845 160.119 5.33533C160.682 5.35876 161.232 5.3822 161.771 5.40564C162.311 5.42908 162.779 5.4408 163.178 5.4408C164.162 5.4408 165.146 5.41736 166.131 5.37048C167.139 5.32361 168.088 5.26501 168.979 5.1947C169.893 5.10095 170.701 5.0072 171.404 4.91345C172.131 4.8197 172.705 4.71423 173.127 4.59705L174.428 5.33533Z" fill="black"/>
</svg>
